// Stereo solo Bb clarinet

<group> hivel=34 ampeg_sustain=100 ampeg_release=0.4
<region> sample=3_Eb_p.wav pitch_keycenter=d#3 hikey=d#3
<region> sample=3_F_p.wav pitch_keycenter=f3 lokey=e3 hikey=f3
<region> sample=3_G_p.wav pitch_keycenter=g3 lokey=f#3 hikey=g3
<region> sample=3_A_p.wav pitch_keycenter=a3 lokey=g#3 hikey=a3
<region> sample=3_B_p.wav pitch_keycenter=b3 lokey=a#3 hikey=b3
<region> sample=4_Db_p.wav pitch_keycenter=c#4 lokey=c4 hikey=c#4
<region> sample=4_Eb_p.wav pitch_keycenter=d#4 lokey=d4 hikey=d#4
<region> sample=4_F_p.wav pitch_keycenter=f4 lokey=e4 hikey=f4
<region> sample=4_G_p.wav pitch_keycenter=g4 lokey=f#4 hikey=g4
<region> sample=4_A_p.wav pitch_keycenter=a4 lokey=g#4 hikey=a4
<region> sample=4_B_p.wav pitch_keycenter=b4 lokey=a#4 hikey=b4
<region> sample=5_Db_p.wav pitch_keycenter=c#5 lokey=c5 hikey=c#5
<region> sample=5_Eb_p.wav pitch_keycenter=d#5 lokey=d5 hikey=d#5
<region> sample=5_F_p.wav pitch_keycenter=f5 lokey=e5 hikey=f5
<region> sample=5_G_p.wav pitch_keycenter=g5 lokey=f#5 hikey=g5
<region> sample=5_A_p.wav pitch_keycenter=a5 lokey=g#5 hikey=a5
<region> sample=5_B_p.wav pitch_keycenter=b5 lokey=a#5 hikey=b5
<region> sample=6_Db_p.wav pitch_keycenter=c#6 lokey=c6 hikey=c#6
<region> sample=6_Eb_p.wav pitch_keycenter=d#6 lokey=d6 hikey=d#6
<region> sample=6_F_p.wav pitch_keycenter=f6 lokey=e6 hikey=f6
<region> sample=6_G_p.wav pitch_keycenter=g6 lokey=f#6 hikey=c7

<group> lovel=35 hivel=95 ampeg_sustain=100 ampeg_release=0.4
<region> sample=3_Eb_mf.wav pitch_keycenter=d#3 hikey=d#3
<region> sample=3_F_mf.wav pitch_keycenter=f3 lokey=e3 hikey=f3
<region> sample=3_G_mf.wav pitch_keycenter=g3 lokey=f#3 hikey=g3
<region> sample=3_A_mf.wav pitch_keycenter=a3 lokey=g#3 hikey=a3
<region> sample=3_B_mf.wav pitch_keycenter=b3 lokey=a#3 hikey=b3
<region> sample=4_Db_mf.wav pitch_keycenter=c#4 lokey=c4 hikey=c#4
<region> sample=4_Eb_mf.wav pitch_keycenter=d#4 lokey=d4 hikey=d#4
<region> sample=4_F_mf.wav pitch_keycenter=f4 lokey=e4 hikey=f4
<region> sample=4_G_mf.wav pitch_keycenter=g4 lokey=f#4 hikey=g4
<region> sample=4_A_mf.wav pitch_keycenter=a4 lokey=g#4 hikey=a4
<region> sample=4_B_mf.wav pitch_keycenter=b4 lokey=a#4 hikey=b4
<region> sample=5_Db_mf.wav pitch_keycenter=c#5 lokey=c5 hikey=c#5
<region> sample=5_Eb_mf.wav pitch_keycenter=d#5 lokey=d5 hikey=d#5
<region> sample=5_F_mf.wav pitch_keycenter=f5 lokey=e5 hikey=f5
<region> sample=5_G_mf.wav pitch_keycenter=g5 lokey=f#5 hikey=g5
<region> sample=5_A_mf.wav pitch_keycenter=a5 lokey=g#5 hikey=a5
<region> sample=5_B_mf.wav pitch_keycenter=b5 lokey=a#5 hikey=b5
<region> sample=6_Db_mf.wav pitch_keycenter=c#6 lokey=c6 hikey=c#6
<region> sample=6_Eb_mf.wav pitch_keycenter=d#6 lokey=d6 hikey=d#6
<region> sample=6_F_mf.wav pitch_keycenter=f6 lokey=e6 hikey=f6
<region> sample=6_G_mf.wav pitch_keycenter=g6 lokey=f#6 hikey=c7

<group> lovel=96 ampeg_sustain=100 ampeg_release=0.4
<region> sample=3_Eb_f.wav pitch_keycenter=d#3 hikey=d#3
<region> sample=3_F_f.wav pitch_keycenter=f3 lokey=e3 hikey=f3
<region> sample=3_G_f.wav pitch_keycenter=g3 lokey=f#3 hikey=g3
<region> sample=3_A_f.wav pitch_keycenter=a3 lokey=g#3 hikey=a3
<region> sample=3_B_f.wav pitch_keycenter=b3 lokey=a#3 hikey=b3
<region> sample=4_Db_f.wav pitch_keycenter=c#4 lokey=c4 hikey=c#4
<region> sample=4_Eb_f.wav pitch_keycenter=d#4 lokey=d4 hikey=d#4
<region> sample=4_F_f.wav pitch_keycenter=f4 lokey=e4 hikey=f4
<region> sample=4_G_f.wav pitch_keycenter=g4 lokey=f#4 hikey=g4
<region> sample=4_A_f.wav pitch_keycenter=a4 lokey=g#4 hikey=a4
<region> sample=4_B_f.wav pitch_keycenter=b4 lokey=a#4 hikey=b4
<region> sample=5_Db_f.wav pitch_keycenter=c#5 lokey=c5 hikey=c#5
<region> sample=5_Eb_f.wav pitch_keycenter=d#5 lokey=d5 hikey=d#5
<region> sample=5_F_f.wav pitch_keycenter=f5 lokey=e5 hikey=f5
<region> sample=5_G_f.wav pitch_keycenter=g5 lokey=f#5 hikey=g5
<region> sample=5_A_f.wav pitch_keycenter=a5 lokey=g#5 hikey=a5
<region> sample=5_B_f.wav pitch_keycenter=b5 lokey=a#5 hikey=b5
<region> sample=6_Db_f.wav pitch_keycenter=c#6 lokey=c6 hikey=c#6
<region> sample=6_Eb_f.wav pitch_keycenter=d#6 lokey=d6 hikey=d#6
<region> sample=6_F_f.wav pitch_keycenter=f6 lokey=e6 hikey=f6
<region> sample=6_G_f.wav pitch_keycenter=g6 lokey=f#6 hikey=c7